# xmcd CD database file
#
# Track frame offsets:
#	150
#	34046
#	55954
#	85653
#	112043
#	136256
#	167909
#	191056
#	217025
#	238375
#	269004
#	294300
#
# Disc length: 4307 seconds
#
# Revision: 1
# Processed by: cddbd v1.4PL0 Copyright (c) Steve Scherf et al.
# Submitted via: CDex 1.40Beta9
#
DISCID=ba10d10c
DTITLE=Various Artist - Venus Record Sampler Vol.2
DYEAR=2003
DGENRE=Jazz
TTITLE0=It's A Lonesome Old Town - Eddie Higins Quartet
TTITLE1=Volare - Stefano Bollani Trio
TTITLE2=Time After Time - Bill Charlap Trio
TTITLE3=Broadway - Jacky Terrasson Jazz Trio
TTITLE4=Pretendo - Claude Williamson Trio
TTITLE5=I Feel Pretty - Richie Cole
TTITLE6=You Must Believe In Spring - Eddie Higgins Trio
TTITLE7=Keiko's Smaba - Walter Bishop Jr. Trio
TTITLE8=So In Love - Richard Wyands Trio
TTITLE9=Why Did I Choose You? - Harold Mabern Trio
TTITLE10=Pavane - g minor - Richie Beirach Trio
TTITLE11=Light Ath The Edge Of The World - Pharoah Sanders Quartet
EXTD=YEAR: 2003 ID3G: 8
EXTT0=
EXTT1=
EXTT2=
EXTT3=
EXTT4=
EXTT5=
EXTT6=
EXTT7=
EXTT8=
EXTT9=
EXTT10=
EXTT11=
PLAYORDER=
